<?xml version="1.0" encoding="iso-8859-1"?>
<!-- Generator: Adobe Illustrator 19.0.0, SVG Export Plug-In . SVG Version: 6.00 Build 0)  -->
<svg version="1.1" id="Capa_1" xmlns="http://www.w3.org/2000/svg" xmlns:xlink="http://www.w3.org/1999/xlink" x="0px" y="0px"
	 viewBox="0 0 426.667 426.667" style="enable-background:new 0 0 426.667 426.667;" xml:space="preserve">
<g>
	<g>
		<path d="M341.333,96h-224C52.48,96,0,148.587,0,213.333s52.48,117.333,117.333,117.333H320v-32H117.333
			C70.187,298.667,32,260.48,32,213.333S70.187,128,117.333,128h224c29.44,0,53.333,23.893,53.333,53.333
			s-23.893,53.333-53.333,53.333H160c-11.733,0-21.333-9.493-21.333-21.333c0-11.84,9.6-21.333,21.333-21.333h160v-32H160
			c-29.44,0-53.333,23.893-53.333,53.333S130.56,266.667,160,266.667h181.333c47.147,0,85.333-38.187,85.333-85.333
			S388.48,96,341.333,96z"/>
	</g>
</g>
<g>
</g>
<g>
</g>
<g>
</g>
<g>
</g>
<g>
</g>
<g>
</g>
<g>
</g>
<g>
</g>
<g>
</g>
<g>
</g>
<g>
</g>
<g>
</g>
<g>
</g>
<g>
</g>
<g>
</g>
</svg>
