<?xml version="1.0" encoding="UTF-8"?>
<svg width="512px" height="512px" viewBox="0 0 512 512" version="1.1" xmlns="http://www.w3.org/2000/svg" xmlns:xlink="http://www.w3.org/1999/xlink">
    <title>shop</title>
    <g id="Page-3" stroke="none" stroke-width="1" fill="none" fill-rule="evenodd">
        <g id="shop" fill="#B0B3B8" fill-rule="nonzero">
            <g id="user">
                <path d="M256,0 C114.841,0 0,114.841 0,256 C0,397.159 114.841,512 256,512 C397.159,512 512,397.159 512,256 C512,114.841 397.159,0 256,0 Z M256,482 C131.383,482 30,380.617 30,256 C30,131.383 131.383,30 256,30 C380.617,30 482,131.383 482,256 C482,380.617 380.617,482 256,482 Z" id="Shape"></path>
                <path d="M256,270 C313.897,270 361,222.897 361,165 C361,107.103 313.897,60 256,60 C198.103,60 151,107.103 151,165 C151,222.897 198.103,270 256,270 Z M256,90 C297.355,90 331,123.645 331,165 C331,206.355 297.355,240 256,240 C214.645,240 181,206.355 181,165 C181,123.645 214.645,90 256,90 Z" id="Shape"></path>
                <path d="M424.649,335.443 C404.716,312.918 376.049,300 346,300 L166,300 C135.951,300 107.284,312.918 87.351,335.443 L80.241,343.478 L85.547,352.803 C120.364,413.99 185.678,452 256,452 C326.322,452 391.636,413.99 426.454,352.802 L431.76,343.477 L424.649,335.443 Z M256,422 C200.264,422 148.239,393.803 117.617,347.705 C131.069,336.353 148.196,330 166,330 L346,330 C363.804,330 380.931,336.353 394.383,347.705 C363.761,393.803 311.736,422 256,422 L256,422 Z" id="Shape"></path>
            </g>
        </g>
    </g>
</svg>